 General
      Complete name : Bonnie.and.Clyde.1967.BRRip.H264.AAC.Gopo.mp4
      Format : MPEG-4
      Format profile : Base Media
      Codec ID : isom
      File size : 1.81 GiB
      Duration : 1h 50mn
      Overall bit rate : 2 334 Kbps
      Encoded date : UTC 2009-12-17 16:51:15
      Tagged date : UTC 2009-12-17 16:51:15
      Writing application : Yamb 2.1.0.0 [http://yamb.unite-video.com]
   Video #1
      ID : 1
      Format : AVC
      Format/Info : Advanced Video Codec
      Format profile : High@L4.1
      Format settings, CABAC : Yes
      Format settings, ReFrames : 5 frames
      Codec ID : avc1
      Codec ID/Info : Advanced Video Coding
      Duration : 1h 50mn
      Bit rate mode : Variable
      Bit rate : 2 139 Kbps
      Maximum bit rate : 12.3 Mbps
      Width : 1 280 pixels
      Height : 720 pixels
      Display aspect ratio : 16:9
      Frame rate mode : Constant
      Frame rate : 23.976 fps
      Resolution : 24 bits
      Colorimetry : 4:2:0
      Scan type : Progressive
      Bits/(Pixel*Frame) : 0.097
      Stream size : 1.65 GiB (92%)
      Writing library : x264 core 79 r1360 528c100
      Encoding settings : cabac=1 / ref=5 / deblock=1:0:0 / analyse=0x3:0x113 / me=umh / subme=8 / psy=1 / psy_rd=1.0:0.0 / mixed_ref=1 / me_range=16 / chroma_me=1 / trellis=2 / 8x8dct=1 / cqm=0 / deadzone=21,11 / chroma_qp_offset=-2 / threads=3 / nr=0 / decimate=1 / mbaff=0 / constrained_intra=0 / bframes=3 / b_pyramid=0 / b_adapt=2 / b_bias=0 / direct=3 / wpredb=1 / wpredp=2 / keyint=250 / keyint_min=25 / scenecut=40 / rc_lookahead=30 / rc=2pass / mbtree=1 / bitrate=2139 / ratetol=1.0 / qcomp=0.50 / qpmin=10 / qpmax=51 / qpstep=4 / cplxblur=20.0 / qblur=0.5 / vbv_maxrate=24000 / vbv_bufsize=24000 / ip_ratio=1.10 / aq=1:1.00
      Encoded date : UTC 2009-12-16 22:47:27
      Tagged date : UTC 2009-12-17 16:55:41
   Audio #2
      ID : 2
      Format : AAC
      Format/Info : Advanced Audio Codec
      Format version : Version 4
      Format profile : LC
      Format settings, SBR : No
      Format settings, PS : Yes
      Codec ID : 40
      Duration : 1h 50mn
      Bit rate mode : Variable
      Bit rate : 192 Kbps
      Maximum bit rate : 239 Kbps
      Channel(s) : 2 channels
      Channel positions : Front: L R
      Sampling rate : 48.0 KHz
      Resolution : 16 bits
      Stream size : 152 MiB (8%)
      Encoded date : UTC 2009-12-17 16:55:22
      Tagged date : UTC 2009-12-17 16:55:41
	Sample : YES
	Subtitle : English,Romanian

PLOT

A bored small-town girl and a small-time bank robber leave in their wake a string of violent robberies and newspaper headlines that catch the imagination of the Depression-struck Mid-West in this take on the legendary crime spree of these archetypal lovers on the run.
Director: Arthur Penn
CASTING 
     
     Warren Beatty	... 	Clyde Barrow
	Faye Dunaway	... 	Bonnie Parker
	Michael J. Pollard	... 	C.W. Moss
	Gene Hackman	... 	Buck Barrow
	Estelle Parsons	... 	Blanche
	Denver Pyle	... 	Frank Hamer
	Dub Taylor	... 	Ivan Moss
	Evans Evans	... 	Velma Davis
	Gene Wilder	... 	Eugene Grizzard

SOURCE: Bonnie.and.Clyde.1967.720p.BluRay.x264-ESiR.mkv

Notes: For best performance I suggest you to use KMPlayer(find it with google) for playback
I haven't tested the movies on a PS3 or Xbox or other devices than PC because I don't own one of them but feel free to test them if you have the oportunity.
